<svg xmlns="http://www.w3.org/2000/svg" xmlns:svg="http://www.w3.org/2000/svg" xmlns:xlink="http://www.w3.org/1999/xlink" id="Layer_1" x="0" y="0" enable-background="new 0 0 32 32" version="1.1" viewBox="0 0 32 32" xml:space="preserve"><switch><g><linearGradient id="circle238_1_" x1="3589" x2="3589" y1="-2471.148" y2="-2540.102" gradientTransform="matrix(0.25 0 0 -0.25 -881.25 -611.055)" gradientUnits="userSpaceOnUse"><stop offset="0" style="stop-color:#bed5e1"/><stop offset="1" style="stop-color:#567b8f"/></linearGradient><path id="circle238" fill="url(#circle238_1_)" d="M14.5,6.7c-2.4,0-4.3,1.9-4.3,4.3c0,1,0.3,1.9,0.9,2.6c1.2-1.4,3-2.3,4.9-2.3c1,0,1.9,0.2,2.7,0.6c0.1-0.3,0.1-0.6,0.1-0.9 C18.8,8.6,16.9,6.7,14.5,6.7z M8.9,8.7c-1.2,0-2.2,1-2.2,2.2c0,0.4,0.1,0.8,0.3,1.1c0.7-0.4,1.6-0.7,2.5-0.7c0.1,0,0.2,0,0.3,0 c0-0.1,0-0.3,0-0.4c0-0.7,0.2-1.3,0.4-1.9C9.8,8.8,9.3,8.7,8.9,8.7L8.9,8.7z M19.5,10.2c-0.1,0-0.2,0-0.3,0c0,0.2,0.1,0.5,0.1,0.8 c0,0.4-0.1,0.8-0.1,1.2c1.1,0.6,2,1.5,2.6,2.6c0.6-0.3,1.3-0.5,2-0.6C23.6,12,21.7,10.2,19.5,10.2z M16,11.8c-3.3,0-6,2.7-6,6 c0,3.3,2.7,6,6,6c3.3,0,6-2.7,6-6C22,14.5,19.3,11.8,16,11.8z M9.4,11.9c-2.6,0-4.7,2.1-4.7,4.7c0,1.5,0.7,2.9,1.8,3.7 c0.5-0.9,1.4-1.5,2.5-1.5c0.1,0,0.3,0,0.4,0c0-0.3-0.1-0.6-0.1-0.9c0-1.5,0.5-2.8,1.3-3.9c-0.5-0.6-0.8-1.3-1-2.1 C9.7,11.9,9.6,11.9,9.4,11.9L9.4,11.9z M24.1,14.7c-0.8,0-1.5,0.2-2.2,0.5c0.4,0.8,0.6,1.7,0.6,2.7c0,1.8-0.7,3.4-1.9,4.6 c0.9,1,2.1,1.5,3.5,1.5c2.6,0,4.7-2.1,4.7-4.7S26.7,14.7,24.1,14.7z M4.3,15.3c-2.4,0-4.3,1.9-4.3,4.3s1.9,4.3,4.3,4.3 c0.9,0,1.7-0.3,2.4-0.8c-0.3-0.4-0.5-1-0.5-1.5c0-0.3,0-0.6,0.1-0.8c-1.3-0.9-2.1-2.5-2.1-4.2c0-0.4,0.1-0.9,0.2-1.3 C4.4,15.3,4.4,15.3,4.3,15.3L4.3,15.3z M29.6,19c-0.1,0-0.3,0-0.4,0c0,0.1,0,0.2,0,0.3c0,1.4-0.5,2.6-1.4,3.5 c0.4,0.5,1.1,0.8,1.8,0.8c1.3,0,2.4-1,2.4-2.4C32,20,30.9,19,29.6,19L29.6,19z M9.1,19.2c-1.3,0-2.4,1.1-2.4,2.4 c0,1.3,1.1,2.4,2.4,2.4c1,0,1.9-0.6,2.2-1.5c-0.8-0.9-1.4-2-1.7-3.2C9.5,19.2,9.3,19.2,9.1,19.2z" enable-background="new" opacity=".8"/></g></switch></svg>